<svg xmlns="http://www.w3.org/2000/svg" width="268" height="130" viewBox="0 0 268 130" fill="none"><path d="M21.3099 33.6267C20.9427 33.6549 20.6038 33.5702 20.2931 33.3725C20.0107 33.203 19.813 32.9771 19.7 32.6946C19.587 32.5534 19.4034 32.2427 19.1492 31.7626C18.8951 31.3107 18.7397 30.9153 18.6832 30.5763C18.5985 29.6725 18.542 28.797 18.5138 27.9497C18.5138 27.1024 18.5561 25.9161 18.6409 24.391C18.7256 23.1482 18.8951 22.0467 19.1492 21.0865C19.4034 20.0979 19.6576 19.2647 19.9118 18.5869C20.166 17.8808 20.3637 17.3583 20.5049 17.0194C20.6462 16.6522 20.6744 16.4686 20.5897 16.4686C20.4767 16.4686 20.3496 16.5816 20.2084 16.8075C20.0954 17.0052 19.9542 17.2736 19.7847 17.6125C19.6435 17.9514 19.4741 18.3186 19.2763 18.714C19.1069 19.1094 18.9233 19.4907 18.7256 19.8579C18.3302 20.7334 17.8642 21.6655 17.3275 22.654C16.8191 23.6143 16.2966 24.5463 15.76 25.4501C15.2234 26.3539 14.7573 27.1447 14.3619 27.8226C14.1077 28.105 13.8112 28.5146 13.4723 29.0512C13.1333 29.5596 12.7662 30.0962 12.3708 30.6611C11.9753 31.226 11.5658 31.692 11.1422 32.0591C10.5208 32.6523 9.88531 33.0053 9.2357 33.1183C8.58609 33.2595 7.97885 33.1889 7.41398 32.9065C7.13154 32.8782 6.83498 32.7229 6.5243 32.4404C6.21362 32.1862 5.95943 31.8614 5.76172 31.466C5.59226 31.0706 5.54989 30.7034 5.63462 30.3645C5.60638 29.9691 5.60638 29.3619 5.63462 28.5428C5.69111 27.6955 5.77584 26.7776 5.88882 25.789C6.00179 24.7723 6.11477 23.7979 6.22774 22.8658C6.36896 21.9338 6.49606 21.1571 6.60903 20.5357C6.86323 18.7281 7.20215 16.8781 7.62581 14.9858C8.07771 13.0935 8.48724 11.187 8.85441 9.26645C9.08036 8.70158 9.27807 8.06609 9.44753 7.36C9.64523 6.62566 9.84294 5.94781 10.0406 5.32645C10.0689 4.70509 10.2948 4.3238 10.7185 4.18258C11.1422 4.01312 11.5941 3.98487 12.0742 4.09785C12.5826 4.21082 12.9356 4.40853 13.1333 4.69097C13.4158 4.97341 13.6841 5.41118 13.9383 6.0043C14.1925 6.59742 14.1219 7.34588 13.7265 8.24968C13.1616 9.63362 12.6108 11.3282 12.0742 13.3335C11.5658 15.3106 11.0998 17.7113 10.6761 20.5357C10.5632 21.2136 10.4361 21.9761 10.2948 22.8234C10.1819 23.6425 10.0689 24.4333 9.95592 25.1959C9.87118 25.9585 9.80057 26.594 9.74409 27.1024C9.71584 27.5825 9.72997 27.8367 9.78645 27.8649C10.0124 27.9214 10.2525 27.7943 10.5067 27.4837C10.7891 27.173 11.0857 26.6787 11.3963 26.0009C12.5543 24.0803 13.6417 22.1738 14.6585 20.2815C15.7035 18.3892 16.7485 16.4121 17.7936 14.3503C18.2737 13.5313 18.7538 12.6416 19.234 11.6813C19.7424 10.6928 20.2225 9.78896 20.6744 8.96989C21.1546 8.12258 21.6206 7.30351 22.0725 6.51269C22.5244 5.72187 22.9198 5.05814 23.2587 4.52151C23.5976 3.95663 23.8518 3.64595 24.0213 3.58946C24.7839 3.58946 25.3487 3.78717 25.7159 4.18258C26.1113 4.57799 26.422 5.05814 26.648 5.62301C26.7044 5.76423 26.7327 6.0043 26.7327 6.34323C26.7609 6.68215 26.7186 6.97871 26.6056 7.2329C26.5774 7.43061 26.4503 7.84014 26.2243 8.46151C26.0266 9.08287 25.843 9.77484 25.6736 10.5374C25.3911 11.3 25.1369 12.0626 24.911 12.8252C24.7133 13.5595 24.572 14.1667 24.4873 14.6469C24.2614 15.8614 23.9789 17.1888 23.64 18.6292C23.3011 20.0697 23.0045 21.5101 22.7503 22.9505C22.5244 24.3627 22.3973 25.6196 22.369 26.7211C22.3408 27.5119 22.3408 28.0344 22.369 28.2886C22.4255 28.5146 22.5103 28.7546 22.6232 29.0088C22.6797 29.2348 22.8068 29.2913 23.0045 29.1783C23.2022 29.0653 23.3999 28.8676 23.5976 28.5852C23.993 27.992 24.2896 27.4837 24.4873 27.06C24.7133 26.6363 24.9392 26.1844 25.1652 25.7043C25.3911 25.1959 25.7018 24.5604 26.0972 23.7979C26.8033 22.4986 27.5235 21.0723 28.2579 19.5189C29.0204 17.9655 29.7406 16.4262 30.4185 14.9011C31.1246 13.3759 31.7318 12.0202 32.2402 10.834C32.7768 9.30882 33.2287 8.08022 33.5959 7.14817C33.9631 6.18789 34.302 5.45355 34.6127 4.94516C34.9234 4.43678 35.2199 4.09785 35.5024 3.92839C35.6436 3.81541 35.9401 3.75893 36.392 3.75893C36.8722 3.75893 37.2394 3.8719 37.4936 4.09785C37.6065 4.21082 37.8042 4.39441 38.0867 4.6486C38.3691 4.9028 38.4962 5.19936 38.468 5.53828C38.3267 5.99018 38.0584 6.72452 37.663 7.74129C37.2958 8.75807 36.8581 9.88782 36.3497 11.1305C35.8695 12.345 35.3894 13.5171 34.9093 14.6469C34.4574 15.7484 34.0761 16.6239 33.7654 17.2736C33.4547 17.8667 33.1581 18.3751 32.8757 18.7987C32.5933 19.2224 32.452 19.5472 32.452 19.7731C32.452 19.8861 32.3108 20.2391 32.0284 20.8323C31.746 21.3971 31.3788 22.0891 30.9269 22.9082C30.5032 23.7272 30.0372 24.5746 29.5288 25.4501C29.0204 26.3257 28.5403 27.1306 28.0884 27.8649C27.6365 28.5993 27.2552 29.1642 26.9445 29.5596C26.2384 30.4351 25.4758 31.1695 24.6568 31.7626C23.866 32.3839 23.1599 32.85 22.5385 33.1606C21.9171 33.4713 21.5076 33.6267 21.3099 33.6267ZM43.3185 30.1527C42.4712 30.6328 41.5674 30.9153 40.6071 31C39.675 31.0565 38.7995 30.9294 37.9804 30.6187C37.1614 30.2798 36.4976 29.7855 35.9892 29.1359C35.7068 28.7687 35.4385 28.1898 35.1843 27.3989C34.9301 26.5799 34.8877 25.4784 35.0572 24.0944C35.2267 22.7952 35.6221 21.4819 36.2434 20.1544C36.893 18.827 37.6839 17.6548 38.6159 16.6381C39.548 15.6213 40.5647 14.9293 41.6662 14.5622C42.0616 14.4209 42.4571 14.3221 42.8525 14.2656C43.2761 14.1809 43.8269 14.1667 44.5047 14.2232C45.1543 14.308 45.7333 14.4774 46.2417 14.7316C46.7501 14.9576 47.1173 15.2118 47.3432 15.4942C47.7951 15.9461 48.0917 16.3839 48.2329 16.8075C48.3741 17.2312 48.4306 17.6407 48.4024 18.0361C48.2611 18.9399 47.8516 19.9143 47.1738 20.9594C46.5242 22.0044 45.6062 22.7811 44.42 23.2895C43.9399 23.4872 43.375 23.6143 42.7254 23.6708C42.0758 23.7272 41.1861 23.6425 40.0563 23.4166C39.3785 23.2753 38.9266 23.346 38.7006 23.6284C38.5029 23.9108 38.4182 24.4616 38.4464 25.2806C38.5029 25.789 38.6159 26.2409 38.7854 26.6363C38.9831 27.0035 39.3361 27.2577 39.8445 27.3989C40.4941 27.5119 40.9601 27.526 41.2426 27.4413C41.525 27.3283 41.8781 27.173 42.3017 26.9753C42.5277 26.8341 42.7395 26.6787 42.9372 26.5093C43.1632 26.3398 43.375 26.1703 43.5727 26.0009C43.7986 25.8314 43.9822 25.7043 44.1234 25.6196C44.2647 25.5066 44.4059 25.436 44.5471 25.4077C44.6883 25.3795 44.8295 25.3654 44.9707 25.3654C45.2814 25.3936 45.578 25.5631 45.8604 25.8738C46.1429 26.1844 46.3264 26.481 46.4112 26.7634C46.4112 26.9894 46.27 27.3142 45.9875 27.7379C45.7051 28.1333 45.3238 28.5569 44.8437 29.0088C44.3918 29.4325 43.8834 29.8138 43.3185 30.1527ZM42.7677 20.7052C42.9654 20.6204 43.2479 20.4227 43.615 20.112C44.0105 19.8014 44.3635 19.4766 44.6742 19.1376C44.9849 18.7705 45.1402 18.488 45.1402 18.2903C45.1402 17.9796 44.9284 17.7113 44.5047 17.4854C44.1093 17.2594 43.5868 17.2171 42.9372 17.3583C42.7113 17.4148 42.4429 17.5701 42.1323 17.8243C41.8216 18.0785 41.5109 18.3751 41.2002 18.714C40.8895 19.0247 40.6212 19.3353 40.3953 19.646C40.1693 19.9285 40.014 20.1544 39.9292 20.3239C40.0422 20.4651 40.2682 20.5781 40.6071 20.6628C40.946 20.7475 41.3132 20.7899 41.7086 20.7899C42.1323 20.7899 42.4853 20.7617 42.7677 20.7052ZM62.5174 29.729C62.0937 29.729 61.6701 29.4184 61.2464 28.797C60.8228 28.1474 60.4838 27.3566 60.2296 26.4245C60.0037 25.4925 59.919 24.5746 59.9754 23.6708C59.9754 22.767 60.0178 22.0467 60.1025 21.5101C60.2155 20.9452 60.3285 20.3945 60.4415 19.8579C60.5262 19.6884 60.5686 19.5472 60.5686 19.4342C60.5968 19.3212 60.6251 19.1376 60.6533 18.8834C60.7098 18.6292 60.8086 18.2056 60.9499 17.6125C61.0628 17.1323 61.1758 16.7369 61.2888 16.4262C61.43 16.1156 61.543 15.9037 61.6277 15.7908C61.9666 15.3389 62.3479 15.0705 62.7716 14.9858C63.1952 14.8728 63.5765 14.9152 63.9155 15.1129C64.2826 15.3106 64.4944 15.6072 64.5509 16.0026C64.7204 16.1438 64.8051 16.4686 64.8051 16.977C64.8334 17.4571 64.8051 17.9655 64.7204 18.5022C64.6357 19.0105 64.5086 19.3777 64.3391 19.6037C64.2826 19.7449 64.212 20.112 64.1273 20.7052C64.0708 21.2983 64.0002 21.9196 63.9155 22.5692C63.859 23.2189 63.7884 23.7414 63.7036 24.1368C63.6189 24.6452 63.6471 24.97 63.7884 25.1112C63.9578 25.2242 64.2403 25.0971 64.6357 24.7299C65.0593 24.3345 65.6101 23.6425 66.2879 22.654C66.8528 21.8067 67.2623 21.1429 67.5165 20.6628C67.799 20.1827 68.0108 19.7449 68.152 19.3495C68.3215 18.9541 68.5051 18.488 68.7028 17.9514C68.844 17.4995 68.9711 17.1323 69.0841 16.8499C69.2253 16.5675 69.3524 16.3698 69.4653 16.2568C69.776 15.8049 70.1856 15.6213 70.6939 15.706C71.2306 15.7625 71.6684 15.9037 72.0073 16.1297C72.3462 16.4686 72.5439 16.9346 72.6004 17.5277C72.6851 18.0926 72.558 18.714 72.2191 19.3918C71.9932 19.8437 71.7672 20.3804 71.5413 21.0017C71.3436 21.6231 71.1741 22.2444 71.0329 22.8658C70.9199 23.4872 70.8634 24.0238 70.8634 24.4757C70.8634 25.0406 70.934 25.3795 71.0752 25.4925C71.2447 25.5772 71.4424 25.6196 71.6684 25.6196C72.0073 25.6196 72.3321 25.5066 72.6428 25.2806C72.9534 25.0265 73.4053 24.5887 73.9985 23.9673C74.2527 23.7131 74.5633 23.3318 74.9305 22.8234C75.2977 22.3151 75.6507 21.7784 75.9896 21.2136C76.3568 20.6487 76.6534 20.1544 76.8793 19.7308C77.1335 19.2789 77.2606 18.9964 77.2606 18.8834C77.2606 18.714 77.3877 18.4739 77.6419 18.1632C77.8114 17.9373 77.9385 17.7678 78.0232 17.6548C78.1362 17.5136 78.3339 17.3724 78.6163 17.2312C78.8423 17.1182 79.0965 17.1041 79.3789 17.1888C79.6613 17.2453 79.9014 17.3865 80.0991 17.6125C80.2403 17.7255 80.3392 18.0079 80.3957 18.4598C80.4804 18.8834 80.5228 19.2647 80.5228 19.6037C80.438 19.9143 80.3109 20.3521 80.1415 20.917C79.972 21.4536 79.7884 21.9761 79.5907 22.4845C79.4213 22.9647 79.2659 23.2895 79.1247 23.4589C79.0117 23.5719 78.814 23.7837 78.5316 24.0944C78.2491 24.3768 77.995 24.6875 77.769 25.0265C77.0629 25.8738 76.5545 26.4245 76.2438 26.6787C75.9332 26.9329 75.6648 27.173 75.4389 27.3989C74.8458 27.992 74.1679 28.4722 73.4053 28.8394C72.6428 29.1783 71.9225 29.376 71.2447 29.4325C70.5668 29.4607 70.0302 29.3336 69.6348 29.0512C68.7593 28.5993 68.3215 27.8367 68.3215 26.7634C68.3215 26.5375 68.2791 26.3398 68.1944 26.1703C68.1379 25.9726 68.1096 25.8738 68.1096 25.8738C67.9967 25.8738 67.8413 25.902 67.6436 25.9585C67.4742 26.015 67.2906 26.2127 67.0929 26.5516C66.8387 27.0318 66.4009 27.526 65.7795 28.0344C65.1864 28.5146 64.5792 28.9241 63.9578 29.263C63.3365 29.5737 62.8563 29.729 62.5174 29.729ZM85.4627 30.6611C84.8695 30.7741 84.4176 30.7458 84.107 30.5763C83.8245 30.3786 83.528 30.1386 83.2173 29.8561C82.7654 29.6302 82.3558 29.3195 81.9887 28.9241C81.6215 28.5004 81.3391 28.0627 81.1414 27.6108C80.9437 27.1589 80.8589 26.8058 80.8872 26.5516C80.9719 25.5631 81.1979 24.4898 81.565 23.3318C81.9604 22.1738 82.4547 21.0441 83.0478 19.9426C83.6692 18.8411 84.3612 17.8667 85.1237 17.0194C85.9146 16.1438 86.7619 15.5083 87.6657 15.1129C88.2305 14.887 88.8378 14.8022 89.4874 14.8587C90.137 14.9152 90.5748 15.1835 90.8007 15.6637C91.2244 16.4827 91.1255 17.0052 90.5042 17.2312C90.4194 17.2312 90.3206 17.2736 90.2076 17.3583C90.0946 17.4148 90.0381 17.4995 90.0381 17.6125C90.1511 17.669 90.4618 17.6831 90.9702 17.6548C91.4786 17.5984 91.987 17.5136 92.4953 17.4006C93.032 17.2594 93.385 17.1182 93.5545 16.977C93.7239 16.8923 93.851 16.8499 93.9358 16.8499C94.0205 16.8499 94.2323 16.8781 94.5713 16.9346C95.0514 17.0758 95.2915 17.2453 95.2915 17.443C95.2915 17.556 95.3338 17.7396 95.4186 17.9938C95.5033 18.2197 95.6022 18.3327 95.7151 18.3327C95.9128 18.3609 95.9552 18.5586 95.8422 18.9258C95.7575 19.293 95.4327 19.6743 94.8678 20.0697C94.3312 20.4086 93.9923 20.6346 93.851 20.7475C93.7381 20.8323 93.7239 21.03 93.8087 21.3406C94.0346 21.8773 94.0205 22.5269 93.7663 23.2895C93.5121 24.052 93.0885 24.8429 92.4953 25.6619C91.9022 26.481 91.1961 27.2577 90.3771 27.992C89.5862 28.6981 88.7531 29.3054 87.8775 29.8138C87.0302 30.2939 86.2252 30.5763 85.4627 30.6611ZM85.5898 27.1024C85.7027 27.1024 85.9004 27.0459 86.1829 26.9329C86.4653 26.7917 86.6913 26.6787 86.8607 26.594C86.9737 26.481 87.1149 26.3539 87.2844 26.2127C87.4821 26.0432 87.6374 25.9444 87.7504 25.9161C87.8634 25.9161 87.934 25.8738 87.9622 25.789C87.9905 25.6761 88.0893 25.4642 88.2588 25.1536C88.4282 24.8146 88.7672 24.3204 89.2756 23.6708C89.8404 23.0494 90.2076 22.5551 90.3771 22.188C90.5465 21.7925 90.5606 21.3689 90.4194 20.917C90.3912 20.804 90.3065 20.7334 90.1652 20.7052C90.0523 20.6769 89.8969 20.6063 89.6992 20.4933C89.4168 20.4933 89.2191 20.5639 89.1061 20.7052C89.0214 20.8181 88.8237 20.7475 88.513 20.4933L87.8351 19.646L87.1149 20.3662C86.663 20.8181 86.2535 21.383 85.8863 22.0609C85.5474 22.7387 85.2791 23.4307 85.0814 24.1368C84.8837 24.8429 84.7566 25.4642 84.7001 26.0009C84.6718 26.4245 84.7424 26.707 84.9119 26.8482C85.0814 26.9894 85.3073 27.0741 85.5898 27.1024ZM100.176 30.1103C100.092 30.1386 99.9081 30.1244 99.6257 30.068C99.3715 30.0115 99.1032 29.9409 98.8207 29.8561C98.5665 29.7714 98.4112 29.7008 98.3547 29.6443C98.2417 29.5313 98.0864 29.3336 97.8887 29.0512C97.691 28.7405 97.578 28.331 97.5498 27.8226C97.5498 27.3142 97.7898 26.707 98.27 26.0009C98.4112 25.7184 98.5807 25.2948 98.7784 24.7299C98.9761 24.165 99.1738 23.5719 99.3715 22.9505C99.5974 22.3009 99.7951 21.7219 99.9646 21.2136C100.162 20.7052 100.304 20.3521 100.388 20.1544C100.445 19.6743 100.416 19.3353 100.304 19.1376C100.219 18.9117 99.9787 18.7846 99.5833 18.7563C99.3009 18.7563 99.0749 18.6575 98.9055 18.4598C98.7642 18.2621 98.6936 17.909 98.6936 17.4006C98.7501 17.0052 98.849 16.6663 98.9902 16.3839C99.1596 16.0732 99.3856 15.819 99.668 15.6213C99.9505 15.4801 100.304 15.3812 100.727 15.3247C101.179 15.2682 101.617 15.2541 102.041 15.2824C102.464 15.3106 102.761 15.4095 102.93 15.5789C103.128 15.6919 103.283 15.9461 103.396 16.3415C103.537 16.7087 103.65 17.09 103.735 17.4854C103.82 17.8808 103.876 18.1774 103.905 18.3751C104.187 18.1491 104.498 17.8384 104.837 17.443C105.204 17.0194 105.571 16.6239 105.938 16.2568C106.39 15.9461 106.927 15.6354 107.548 15.3247C108.169 14.9858 108.621 14.8163 108.904 14.8163C109.214 14.8163 109.596 14.9717 110.048 15.2824C110.5 15.5648 110.782 15.819 110.895 16.0449C111.177 16.5251 111.375 17.0335 111.488 17.5701C111.629 18.0785 111.545 18.5304 111.234 18.9258C110.951 19.293 110.556 19.6601 110.048 20.0273C109.539 20.3662 108.904 20.4651 108.141 20.3239C107.972 20.2674 107.788 20.0556 107.59 19.6884C107.421 19.3212 107.322 19.0529 107.294 18.8834C107.294 18.7987 107.167 18.8834 106.913 19.1376C106.687 19.3636 106.404 19.646 106.065 19.9849C105.755 20.3239 105.458 20.6346 105.176 20.917C104.695 21.5101 104.187 22.3151 103.65 23.3318C103.114 24.3486 102.478 25.5772 101.744 27.0176C101.405 27.7237 101.123 28.4016 100.897 29.0512C100.671 29.6725 100.431 30.0256 100.176 30.1103ZM120.739 31.3389C120.626 31.226 120.456 31.0847 120.23 30.9153C120.004 30.7176 119.835 30.5199 119.722 30.3222C119.665 30.2374 119.524 30.0821 119.298 29.8561C119.072 29.6019 118.846 29.3619 118.62 29.1359C118.394 28.8817 118.239 28.7264 118.154 28.6699C118.098 28.5287 117.999 28.3733 117.858 28.2039C117.717 28.0062 117.561 27.8085 117.392 27.6108C117.222 27.3848 117.025 27.173 116.799 26.9753C116.488 26.5516 116.234 26.2268 116.036 26.0009C115.867 25.7749 115.725 25.6619 115.612 25.6619C115.612 25.6619 115.528 25.9303 115.358 26.4669C115.189 26.9753 115.005 27.5684 114.807 28.2462C114.61 28.8958 114.44 29.4325 114.299 29.8561C114.186 30.0538 114.073 30.2092 113.96 30.3222C113.847 30.4351 113.734 30.5199 113.621 30.5763C113.536 30.6328 113.438 30.6752 113.325 30.7034C113.212 30.7034 113.099 30.7034 112.986 30.7034C112.675 30.7034 112.28 30.5622 111.799 30.2798C111.319 29.9974 111.079 29.5878 111.079 29.0512C110.966 28.6558 111.108 27.7943 111.503 26.4669C111.898 25.1394 112.506 23.4448 113.325 21.383C113.438 20.9594 113.579 20.5216 113.748 20.0697C113.918 19.5895 114.059 19.1941 114.172 18.8834C114.596 17.4995 115.062 16.2285 115.57 15.0705C116.078 13.8843 116.643 12.571 117.265 11.1305C117.519 10.6222 117.702 10.255 117.815 10.029C117.928 9.77484 118.055 9.52065 118.197 9.26645C118.338 8.98402 118.55 8.57448 118.832 8.03785C119.454 6.87986 119.948 5.97606 120.315 5.32645C120.682 4.67685 120.965 4.1967 121.162 3.88602C121.36 3.57534 121.529 3.34939 121.671 3.20817C121.812 3.06695 122.038 2.9681 122.349 2.91161C122.659 2.85513 122.97 2.85513 123.281 2.91161C123.619 2.93986 123.86 3.03871 124.001 3.20817C124.227 3.43412 124.396 3.66007 124.509 3.88602C124.622 4.08373 124.622 4.36617 124.509 4.73334C124.424 5.07226 124.17 5.59477 123.747 6.30086C123.521 6.80925 123.337 7.17642 123.196 7.40237C123.055 7.62832 122.913 7.85427 122.772 8.08022C122.631 8.30617 122.405 8.70158 122.094 9.26645C122.066 9.37943 122.01 9.50653 121.925 9.64774C121.868 9.76072 121.798 9.87369 121.713 9.98667C121.628 10.0714 121.544 10.1138 121.459 10.1138C121.459 10.1985 121.416 10.368 121.332 10.6222C121.247 10.8763 121.148 11.1164 121.035 11.3424C120.95 11.653 120.809 11.992 120.612 12.3591C120.442 12.6981 120.315 12.9805 120.23 13.2065C120.004 13.7431 119.694 14.3927 119.298 15.1553C118.931 15.8896 118.705 16.4827 118.62 16.9346C118.62 16.9911 118.663 17.0052 118.747 16.977C118.832 16.9205 118.931 16.8499 119.044 16.7652C119.185 16.6522 119.312 16.5675 119.425 16.511C120.075 16.0026 120.767 15.5224 121.501 15.0705C122.264 14.6186 122.899 14.3503 123.408 14.2656C123.69 14.1809 123.944 14.1385 124.17 14.1385C124.396 14.1103 124.608 14.1103 124.806 14.1385C125.003 14.1667 125.201 14.2232 125.399 14.308C125.71 14.5057 125.992 14.8728 126.246 15.4095C126.5 15.9461 126.684 16.4827 126.797 17.0194C126.797 17.2736 126.67 17.7396 126.416 18.4174C126.19 19.067 125.907 19.7166 125.568 20.3662C125.258 20.9876 124.961 21.4113 124.679 21.6372C124.537 21.6937 124.41 21.7502 124.297 21.8067C124.213 21.8632 124.142 21.9196 124.086 21.9761C124.057 22.0044 124.043 22.0185 124.043 22.0185C124.043 22.1315 123.987 22.2727 123.874 22.4422C123.789 22.6116 123.634 22.7528 123.408 22.8658C123.295 22.9788 123.168 23.12 123.026 23.2895C122.885 23.4589 122.815 23.586 122.815 23.6708C122.815 23.6708 122.815 23.7131 122.815 23.7979C122.815 23.8543 122.815 23.8826 122.815 23.8826C122.702 23.8826 122.603 23.8967 122.518 23.9249C122.462 23.9249 122.278 24.0379 121.967 24.2639C121.657 24.5746 121.431 24.744 121.289 24.7723C121.176 24.8005 121.007 24.857 120.781 24.9417C120.668 25.0547 120.527 25.1253 120.357 25.1536C120.216 25.1818 120.146 25.2524 120.146 25.3654C120.146 25.4784 120.258 25.6902 120.484 26.0009C120.71 26.3115 120.979 26.6505 121.289 27.0176C121.628 27.3848 121.953 27.7237 122.264 28.0344C122.574 28.3451 122.815 28.5569 122.984 28.6699C123.182 28.7546 123.323 28.91 123.408 29.1359C123.492 29.3619 123.535 29.6019 123.535 29.8561C123.563 30.1103 123.549 30.3504 123.492 30.5763C123.464 30.8023 123.422 30.9718 123.365 31.0847C123.309 31.1412 123.111 31.2118 122.772 31.2966C122.462 31.4095 122.108 31.4801 121.713 31.5084C121.346 31.5366 121.021 31.4801 120.739 31.3389ZM118.281 23.2471C118.423 23.1341 118.677 22.9223 119.044 22.6116C119.439 22.3009 119.863 21.962 120.315 21.5948C120.767 21.1994 121.176 20.8181 121.544 20.451C121.939 20.0838 122.221 19.8014 122.391 19.6037C122.589 19.406 122.8 19.0811 123.026 18.6292C123.252 18.1773 123.295 17.8102 123.153 17.5277C123.125 17.4148 122.913 17.4854 122.518 17.7396C122.123 17.9938 121.614 18.2762 120.993 18.5869C120.513 18.8693 119.976 19.1941 119.383 19.5613C118.818 19.9002 118.281 20.2815 117.773 20.7052C117.265 21.1006 116.869 21.5384 116.587 22.0185C116.53 22.2162 116.587 22.4422 116.756 22.6963C116.926 22.9505 117.152 23.1482 117.434 23.2895C117.717 23.4024 117.999 23.3883 118.281 23.2471ZM141.125 29.729C140.702 29.729 140.278 29.4184 139.854 28.797C139.431 28.1474 139.092 27.3566 138.838 26.4245C138.612 25.4925 138.527 24.5746 138.583 23.6708C138.583 22.767 138.626 22.0467 138.711 21.5101C138.824 20.9452 138.937 20.3945 139.05 19.8579C139.134 19.6884 139.177 19.5472 139.177 19.4342C139.205 19.3212 139.233 19.1376 139.261 18.8834C139.318 18.6292 139.417 18.2056 139.558 17.6125C139.671 17.1323 139.784 16.7369 139.897 16.4262C140.038 16.1156 140.151 15.9037 140.236 15.7908C140.575 15.3389 140.956 15.0705 141.38 14.9858C141.803 14.8728 142.185 14.9152 142.523 15.1129C142.891 15.3106 143.102 15.6072 143.159 16.0026C143.328 16.1438 143.413 16.4686 143.413 16.977C143.441 17.4571 143.413 17.9655 143.328 18.5022C143.244 19.0105 143.117 19.3777 142.947 19.6037C142.891 19.7449 142.82 20.112 142.735 20.7052C142.679 21.2983 142.608 21.9196 142.523 22.5692C142.467 23.2189 142.396 23.7414 142.312 24.1368C142.227 24.6452 142.255 24.97 142.396 25.1112C142.566 25.2242 142.848 25.0971 143.244 24.7299C143.667 24.3345 144.218 23.6425 144.896 22.654C145.461 21.8067 145.87 21.1429 146.125 20.6628C146.407 20.1827 146.619 19.7449 146.76 19.3495C146.93 18.9541 147.113 18.488 147.311 17.9514C147.452 17.4995 147.579 17.1323 147.692 16.8499C147.833 16.5675 147.96 16.3698 148.073 16.2568C148.384 15.8049 148.794 15.6213 149.302 15.706C149.839 15.7625 150.276 15.9037 150.615 16.1297C150.954 16.4686 151.152 16.9346 151.208 17.5277C151.293 18.0926 151.166 18.714 150.827 19.3918C150.601 19.8437 150.375 20.3804 150.149 21.0017C149.952 21.6231 149.782 22.2444 149.641 22.8658C149.528 23.4872 149.471 24.0238 149.471 24.4757C149.471 25.0406 149.542 25.3795 149.683 25.4925C149.853 25.5772 150.05 25.6196 150.276 25.6196C150.615 25.6196 150.94 25.5066 151.251 25.2806C151.561 25.0265 152.013 24.5887 152.606 23.9673C152.861 23.7131 153.171 23.3318 153.539 22.8234C153.906 22.3151 154.259 21.7784 154.598 21.2136C154.965 20.6487 155.261 20.1544 155.487 19.7308C155.742 19.2789 155.869 18.9964 155.869 18.8834C155.869 18.714 155.996 18.4739 156.25 18.1632C156.419 17.9373 156.546 17.7678 156.631 17.6548C156.744 17.5136 156.942 17.3724 157.224 17.2312C157.45 17.1182 157.704 17.1041 157.987 17.1888C158.269 17.2453 158.509 17.3865 158.707 17.6125C158.848 17.7255 158.947 18.0079 159.004 18.4598C159.088 18.8834 159.131 19.2647 159.131 19.6037C159.046 19.9143 158.919 20.3521 158.75 20.917C158.58 21.4536 158.396 21.9761 158.199 22.4845C158.029 22.9647 157.874 23.2895 157.733 23.4589C157.62 23.5719 157.422 23.7837 157.14 24.0944C156.857 24.3768 156.603 24.6875 156.377 25.0265C155.671 25.8738 155.163 26.4245 154.852 26.6787C154.541 26.9329 154.273 27.173 154.047 27.3989C153.454 27.992 152.776 28.4722 152.013 28.8394C151.251 29.1783 150.531 29.376 149.853 29.4325C149.175 29.4607 148.638 29.3336 148.243 29.0512C147.367 28.5993 146.93 27.8367 146.93 26.7634C146.93 26.5375 146.887 26.3398 146.802 26.1703C146.746 25.9726 146.718 25.8738 146.718 25.8738C146.605 25.8738 146.449 25.902 146.252 25.9585C146.082 26.015 145.899 26.2127 145.701 26.5516C145.447 27.0318 145.009 27.526 144.388 28.0344C143.794 28.5146 143.187 28.9241 142.566 29.263C141.944 29.5737 141.464 29.729 141.125 29.729ZM161.359 29.6019C161.246 29.6019 161.006 29.5172 160.639 29.3477C160.272 29.1783 160.088 29.0936 160.088 29.0936C160.088 28.9806 160.046 28.8394 159.961 28.6699C159.905 28.5004 159.877 28.3592 159.877 28.2462C159.679 28.1333 159.481 27.9497 159.283 27.6955C159.086 27.4413 159.043 27.1589 159.156 26.8482C159.326 26.5375 159.552 26.0715 159.834 25.4501C160.145 24.8005 160.47 24.0803 160.809 23.2895C161.176 22.4704 161.515 21.6796 161.825 20.917C162.136 20.1544 162.404 19.5048 162.63 18.9682C162.856 18.4033 162.983 18.0644 163.012 17.9514C163.012 17.8384 163.026 17.6407 163.054 17.3583C163.11 17.0758 163.294 16.8358 163.605 16.6381C163.972 16.3839 164.353 16.3698 164.749 16.5957C165.144 16.8217 165.483 17.2171 165.765 17.7819C166.048 18.3186 166.189 18.9541 166.189 19.6884C166.189 19.8861 166.048 20.3945 165.765 21.2136C165.483 22.0044 165.102 22.9505 164.621 24.052C164.17 25.1536 163.661 26.2692 163.096 27.3989C162.673 28.218 162.348 28.797 162.122 29.1359C161.924 29.4466 161.67 29.6019 161.359 29.6019ZM167.121 13.3759C166.782 13.3759 166.373 13.2206 165.892 12.9099C165.441 12.5992 165.031 12.2038 164.664 11.7237C164.297 11.2435 164.113 10.7351 164.113 10.1985C164.113 10.0573 164.24 9.80308 164.494 9.43592C164.749 9.0405 164.989 8.65921 165.215 8.29204C165.469 7.92488 165.596 7.71305 165.596 7.65656C165.822 7.65656 166.09 7.69893 166.401 7.78366C166.711 7.86839 166.966 7.96724 167.163 8.08022C167.474 8.78631 167.884 9.39355 168.392 9.90194C168.9 10.3821 169.155 10.9328 169.155 11.5542C169.155 12.1756 168.999 12.6416 168.689 12.9523C168.378 13.2347 167.855 13.3759 167.121 13.3759ZM173.869 31.2542C173.474 31.1412 173.079 30.9435 172.683 30.6611C172.288 30.3786 171.878 30.0538 171.455 29.6867C171.116 29.2348 170.876 28.8252 170.734 28.4581C170.593 28.0627 170.508 27.6108 170.48 27.1024C170.48 26.5657 170.48 25.8879 170.48 25.0688C170.48 24.7299 170.537 24.2498 170.65 23.6284C170.791 23.007 170.932 22.3574 171.073 21.6796C171.243 21.0017 171.398 20.4086 171.539 19.9002C171.681 19.3636 171.765 19.0105 171.793 18.8411C171.878 18.4739 171.737 18.2621 171.37 18.2056C171.003 18.1491 170.593 18.135 170.141 18.1632C169.718 18.1632 169.435 18.1209 169.294 18.0361C169.181 18.0079 169.124 17.8667 169.124 17.6125C169.124 17.33 169.124 17.1888 169.124 17.1888C169.124 17.0758 169.068 17.0052 168.955 16.977C168.842 16.9205 168.743 16.8217 168.658 16.6804C168.602 16.5675 168.673 16.3556 168.87 16.0449C169.068 15.7343 169.322 15.5507 169.633 15.4942C169.887 15.4377 170.268 15.3953 170.777 15.3671C171.285 15.3106 171.793 15.2118 172.302 15.0705C172.839 14.9011 173.248 14.6469 173.53 14.308C173.785 13.6866 174.067 13.0229 174.378 12.3168C174.688 11.5824 174.985 10.947 175.267 10.4103C175.55 9.84545 175.748 9.4924 175.861 9.35118C176.341 9.09699 176.835 8.99814 177.343 9.05463C177.852 9.08287 178.247 9.32294 178.53 9.77484C178.671 9.97255 178.784 10.1138 178.869 10.1985C178.982 10.2832 179.024 10.4103 178.996 10.5798C178.996 10.7492 178.883 11.0599 178.657 11.5118C178.459 11.9355 178.12 12.5992 177.64 13.503C177.499 13.7854 177.372 14.0396 177.259 14.2656C177.146 14.4633 177.089 14.5622 177.089 14.5622C177.202 14.5904 177.372 14.6045 177.598 14.6045C177.824 14.6045 178.106 14.5904 178.445 14.5622C178.756 14.5057 179.094 14.4633 179.462 14.4351C179.829 14.3786 180.154 14.3786 180.436 14.4351C181.086 14.4351 181.566 14.6186 181.876 14.9858C182.187 15.353 182.357 15.819 182.385 16.3839C182.441 16.6946 182.328 16.9629 182.046 17.1888C181.764 17.4148 181.241 17.5277 180.478 17.5277C180.224 17.5277 179.857 17.5419 179.377 17.5701C178.897 17.5984 178.403 17.6266 177.894 17.6548C177.386 17.6831 176.948 17.7255 176.581 17.7819C176.242 17.8102 176.072 17.8525 176.072 17.909C175.988 17.9655 175.846 18.1915 175.649 18.5869C175.479 18.9541 175.296 19.406 175.098 19.9426C174.929 20.4792 174.773 20.9876 174.632 21.4677C174.434 22.428 174.293 23.3601 174.208 24.2639C174.124 25.1677 174.109 25.9585 174.166 26.6363C174.251 27.286 174.42 27.752 174.674 28.0344C174.929 28.2886 175.31 28.2886 175.818 28.0344C176.355 27.752 176.849 27.4272 177.301 27.06C177.809 26.6363 178.247 26.5093 178.614 26.6787C178.982 26.8199 179.207 27.1306 179.292 27.6108C179.405 28.0627 179.278 28.5569 178.911 29.0936C178.572 29.6302 178.092 30.0821 177.47 30.4493C176.849 30.8164 176.214 31.0706 175.564 31.2118C174.914 31.3813 174.35 31.3954 173.869 31.2542ZM197.639 30.7034C197.102 30.8447 196.537 30.9435 195.944 31C195.379 31.0847 194.885 30.9153 194.461 30.4916C194.207 30.0962 193.981 29.7432 193.784 29.4325C193.586 29.1218 193.459 28.571 193.402 27.7802C193.374 27.2436 193.402 26.6646 193.487 26.0432C193.6 25.3936 193.642 24.9276 193.614 24.6452C193.84 23.6001 193.897 22.8517 193.784 22.3998C193.699 21.9479 193.586 21.7219 193.445 21.7219C193.134 21.6655 192.64 21.8914 191.962 22.3998C191.312 22.9082 190.536 23.6284 189.632 24.5604C188.756 25.4642 187.81 26.4951 186.793 27.6531C186.257 28.3875 185.861 28.9382 185.607 29.3054C185.381 29.6443 185.212 29.8138 185.099 29.8138C184.59 29.8138 184.124 29.729 183.701 29.5596C183.277 29.3901 182.938 29.15 182.684 28.8394C182.43 28.5287 182.274 28.2039 182.218 27.8649C182.218 27.752 182.288 27.4554 182.43 26.9753C182.571 26.4669 182.74 25.8879 182.938 25.2383C183.136 24.5887 183.319 23.9814 183.489 23.4166C183.686 22.8517 183.828 22.4563 183.912 22.2303C184.167 21.496 184.463 20.6063 184.802 19.5613C185.169 18.488 185.494 17.5419 185.776 16.7228C185.889 16.3556 186.087 15.8331 186.37 15.1553C186.652 14.4492 186.934 13.7431 187.217 13.037C187.499 12.3309 187.697 11.8084 187.81 11.4695C187.895 11.2435 188.05 10.8481 188.276 10.2832C188.502 9.69011 188.742 9.0405 188.996 8.33441C189.279 7.62832 189.533 6.97871 189.759 6.38559C190.013 5.76423 190.182 5.31233 190.267 5.02989C190.239 4.7757 190.253 4.54975 190.31 4.35204C190.394 4.12609 190.479 3.95663 190.564 3.84366C190.677 3.84366 190.804 3.84366 190.945 3.84366C191.086 3.81541 191.157 3.80129 191.157 3.80129C191.157 3.7448 191.34 3.80129 191.708 3.97075C192.103 4.14022 192.484 4.35204 192.851 4.60624C193.247 4.83219 193.445 5.02989 193.445 5.19936C193.586 5.56652 193.6 6.04667 193.487 6.63979C193.374 7.20466 193.077 8.0661 192.597 9.22409C192.287 9.67599 191.976 10.3538 191.665 11.2576C191.383 12.1614 191.1 12.924 190.818 13.5454C190.705 13.7431 190.536 14.0961 190.31 14.6045C190.112 15.0847 189.872 15.6637 189.589 16.3415C189.335 16.9911 189.081 17.6831 188.827 18.4174C188.573 19.1518 188.347 19.872 188.149 20.5781C187.866 21.2559 187.768 21.7078 187.852 21.9338C187.937 22.1597 188.276 21.9055 188.869 21.1712C189.66 20.3239 190.394 19.5613 191.072 18.8834C191.778 18.2056 192.428 17.669 193.021 17.2736C193.642 16.8499 194.193 16.6663 194.673 16.7228C194.927 16.7793 195.252 16.9629 195.648 17.2736C196.071 17.556 196.467 17.8949 196.834 18.2903C197.229 18.6575 197.483 19.0105 197.596 19.3495C197.709 19.7449 197.78 20.1262 197.808 20.4933C197.865 20.8605 197.879 21.383 197.851 22.0609C197.822 22.7105 197.752 23.6849 197.639 24.9841C197.469 25.9444 197.356 26.6363 197.3 27.06C197.243 27.4554 197.258 27.7379 197.342 27.9073C197.455 28.0768 197.625 28.2604 197.851 28.4581C198.274 28.797 198.444 29.2065 198.359 29.6867C198.274 30.1386 198.034 30.4775 197.639 30.7034ZM9.3628 66.1695C8.54373 66.3107 7.72466 66.2401 6.90559 65.9576C6.11477 65.6752 5.45104 65.2233 4.91441 64.6019C4.40602 63.9523 4.15183 63.1756 4.15183 62.2718C4.0671 61.4245 4.13771 60.4219 4.36366 59.2639C4.61785 58.0776 4.98502 56.8914 5.46516 55.7052C5.97355 54.5189 6.55255 53.5163 7.20215 52.6972C7.76703 52.0194 8.3319 51.398 8.89678 50.8331C9.46165 50.2682 9.97004 49.887 10.4219 49.6893C10.8173 49.5198 11.2975 49.3927 11.8624 49.308C12.4555 49.195 12.865 49.1385 13.091 49.1385C13.5429 49.2515 14.0371 49.4351 14.5738 49.6893C15.1386 49.9434 15.4211 50.24 15.4211 50.5789C15.4211 50.5789 15.4493 50.6213 15.5058 50.706C15.5905 50.7625 15.6329 50.7908 15.6329 50.7908C15.8024 50.7908 15.986 51.0026 16.1837 51.4262C16.4096 51.8217 16.5791 52.2877 16.692 52.8243C16.805 53.3327 16.7768 53.7422 16.6073 54.0529C16.4943 54.5895 16.2684 55.112 15.9295 55.6204C15.6188 56.1288 15.3505 56.383 15.1245 56.383C15.0115 56.383 14.8986 56.3971 14.7856 56.4254C14.7009 56.4254 14.6585 56.496 14.6585 56.6372C14.6585 56.7784 14.5032 56.849 14.1925 56.849C13.91 56.849 13.6135 56.7926 13.3028 56.6796C12.9921 56.5666 12.7944 56.3971 12.7097 56.1712C12.7097 56.03 12.7379 55.8464 12.7944 55.6204C12.8509 55.3945 12.9356 55.0132 13.0486 54.4766C13.2181 53.6857 13.2322 53.1632 13.091 52.909C12.9498 52.6266 12.5967 52.5984 12.0318 52.8243C11.3257 53.2197 10.7467 53.6857 10.2948 54.2224C9.84294 54.7308 9.43341 55.451 9.06624 56.383C8.72731 57.3151 8.34602 58.6143 7.92237 60.2807C7.7529 60.9303 7.72466 61.4386 7.83764 61.8058C7.97885 62.173 8.09183 62.3707 8.17656 62.3989C8.57197 62.5119 8.99563 62.5402 9.44753 62.4837C9.92767 62.3989 10.3231 62.2718 10.6338 62.1024C11.0857 61.8764 11.4811 61.6364 11.82 61.3822C12.1872 61.0997 12.5826 60.8032 13.0062 60.4925C13.1475 60.4077 13.2746 60.2524 13.3875 60.0265C13.5005 59.7723 13.67 59.5887 13.8959 59.4757C14.1219 59.1368 14.4043 58.9673 14.7432 58.9673C15.1104 58.9391 15.4634 58.925 15.8024 58.925C16.0283 58.9814 16.2684 59.1227 16.5226 59.3486C16.7768 59.5746 16.9604 59.8005 17.0733 60.0265C17.2146 60.2242 17.2004 60.3654 17.031 60.4501C16.918 60.4501 16.8474 60.4925 16.8191 60.5772C16.8191 60.6337 16.8191 60.6619 16.8191 60.6619C16.8756 60.7749 16.7485 61.0291 16.4379 61.4245C16.1554 61.8199 15.7882 62.2436 15.3363 62.6955C14.8844 63.1474 14.4467 63.5428 14.023 63.8817C13.6276 64.1924 13.3452 64.3477 13.1757 64.3477C12.8933 64.3477 12.752 64.4325 12.752 64.6019C12.752 64.6584 12.5402 64.7996 12.1166 65.0256C11.7211 65.2515 11.2551 65.4775 10.7185 65.7034C10.2101 65.9294 9.75821 66.0847 9.3628 66.1695ZM22.5494 65.7034C22.1823 65.7034 21.8857 65.6328 21.6597 65.4916C21.462 65.3504 21.2078 65.1527 20.8972 64.8985C20.3605 64.3336 19.9228 63.7264 19.5838 63.0768C19.2731 62.4272 19.1602 61.8623 19.2449 61.3822C19.3296 61.1562 19.3579 60.9444 19.3296 60.7467C19.3296 60.5207 19.3296 60.4077 19.3296 60.4077C19.1884 60.2665 19.146 60.1818 19.2025 60.1536C19.259 60.0971 19.3155 60.0123 19.372 59.8994C19.5415 59.8994 19.5979 59.744 19.5415 59.4333C19.485 59.2074 19.5697 58.7272 19.7957 57.9929C20.0498 57.2303 20.3888 56.5101 20.8124 55.8323C20.9819 55.5498 21.2361 55.1827 21.575 54.7308C21.9139 54.2506 22.2811 53.7846 22.6765 53.3327C23.1002 52.8526 23.4815 52.4713 23.8204 52.1888C24.5265 51.5957 25.1761 51.1156 25.7692 50.7484C26.3906 50.3812 27.0119 50.127 27.6333 49.9858C28.2547 49.8446 28.8901 49.774 29.5397 49.774C30.2176 49.774 30.7683 49.9999 31.192 50.4518C31.8416 50.7343 32.2935 51.1156 32.5477 51.5957C32.8301 52.0758 33.0137 52.6972 33.0985 53.4598C33.1832 54.3071 33.0985 55.3521 32.8443 56.5948C32.5901 57.8093 31.8981 59.2215 30.7683 60.8314C30.0623 61.8482 29.3703 62.639 28.6924 63.2039C28.0146 63.7688 27.2661 64.2913 26.4471 64.7714C25.8539 65.1668 25.2185 65.4069 24.5406 65.4916C23.8628 65.5764 23.199 65.647 22.5494 65.7034ZM26.8707 60.5348C27.4921 59.9982 27.9299 59.4051 28.184 58.7555C28.4665 58.1059 28.763 57.3433 29.0737 56.4677C29.1867 56.2983 29.2573 56.0158 29.2855 55.6204C29.342 55.225 29.3562 54.8437 29.3279 54.4766C29.2997 54.0812 29.2008 53.8552 29.0314 53.7987C28.7772 53.601 28.523 53.5586 28.2688 53.6716C28.0146 53.7564 27.6898 53.9399 27.2944 54.2224C26.4471 54.9285 25.6562 55.7475 24.9219 56.6796C24.2158 57.5834 23.7215 58.699 23.4391 60.0265C23.3544 60.7326 23.425 61.2692 23.6509 61.6364C23.9051 61.9753 24.3005 62.0741 24.8372 61.9329C25.402 61.7634 26.0799 61.2974 26.8707 60.5348ZM36.204 64.4325C36.1193 64.3195 35.9357 64.1783 35.6533 64.0088C35.3709 63.8394 35.2296 63.6981 35.2296 63.5852C35.2296 63.5287 35.2155 63.4581 35.1873 63.3733C35.1873 63.2886 35.1308 63.2462 35.0178 63.2462C34.9331 63.1615 34.9754 62.8508 35.1449 62.3142C35.3426 61.7776 35.5968 61.1421 35.9075 60.4077C36.2464 59.6734 36.5995 58.9673 36.9666 58.2895C37.3338 57.5834 37.6445 57.0185 37.8987 56.5948C38.0399 56.5101 38.1246 56.3971 38.1529 56.2559C38.2094 56.0865 38.2094 56.0017 38.1529 56.0017C38.1529 56.0017 38.2235 55.8746 38.3647 55.6204C38.5342 55.338 38.6613 55.1544 38.746 55.0697C38.9719 54.6743 39.1414 54.2789 39.2544 53.8834C39.3673 53.4598 39.3956 53.1067 39.3391 52.8243C39.2261 52.6831 39.099 52.6407 38.9578 52.6972C38.8166 52.7537 38.746 52.7819 38.746 52.7819C38.633 52.8102 38.4635 52.8667 38.2376 52.9514C38.0399 53.0079 37.8563 53.0926 37.6868 53.2056C37.0372 53.6575 36.5571 53.8834 36.2464 53.8834C35.964 53.8834 35.6815 53.5445 35.3991 52.8667C35.2861 52.556 35.2438 52.2594 35.272 51.977C35.3003 51.6946 35.4132 51.4686 35.6109 51.2991C35.8369 51.1014 36.1193 50.9037 36.4582 50.706C36.7972 50.4801 37.0231 50.3247 37.1361 50.24C37.4468 50.0423 37.8846 49.8305 38.4494 49.6045C39.0143 49.3786 39.3532 49.2515 39.4662 49.2232C40.2005 48.9973 40.8219 48.9973 41.3303 49.2232C41.8387 49.4209 42.22 49.8163 42.4742 50.4095C42.8696 50.8896 43.0673 51.398 43.0673 51.9346C43.0673 52.4713 42.8696 53.135 42.4742 53.9258L42.0505 54.5613C41.9093 54.8437 41.881 54.985 41.9658 54.985C42.0787 54.985 42.2058 54.8861 42.3471 54.6884C42.4318 54.5754 42.6013 54.406 42.8554 54.18C43.1096 53.9541 43.2791 53.8411 43.3638 53.8411C43.3638 53.8411 43.3921 53.827 43.4486 53.7987C43.5333 53.7705 43.5757 53.6575 43.5757 53.4598C43.6604 53.3751 43.7451 53.2903 43.8299 53.2056C43.9428 53.1209 43.9993 53.0785 43.9993 53.0785C44.1123 53.0785 44.2535 53.022 44.423 52.909C44.6207 52.7678 44.9455 52.5136 45.3974 52.1465C45.7081 51.9205 45.9905 51.8075 46.2447 51.8075C46.8943 51.6098 47.4168 51.8217 47.8122 52.443C48.2359 53.0644 48.4477 53.8693 48.4477 54.8579L47.558 57.1456L49.0832 55.2815C49.2527 55.0556 49.4221 54.8579 49.5916 54.6884C49.7893 54.5189 49.9587 54.3777 50.1 54.2647C50.1565 54.067 50.2412 53.9541 50.3542 53.9258C50.4671 53.8976 50.5236 53.8834 50.5236 53.8834C50.5236 53.8834 50.5519 53.8834 50.6084 53.8834C50.6648 53.8552 50.6931 53.7987 50.6931 53.714C50.8343 53.601 50.9896 53.5022 51.1591 53.4174C51.3286 53.3045 51.4415 53.1915 51.498 53.0785C51.9782 52.8808 52.5572 52.8526 53.235 52.9938C53.9129 53.1067 54.393 53.4598 54.6754 54.0529C54.8732 54.3918 55.0567 54.6884 55.2262 54.9426C55.3957 55.1968 55.4804 55.5781 55.4804 56.0865C55.4239 56.5101 55.3674 56.8067 55.3109 56.9761C55.2827 57.1456 55.2544 57.3292 55.2262 57.5269C55.198 57.6964 55.1556 58.007 55.0991 58.4589C54.9861 58.6849 54.9155 58.925 54.8873 59.1791C54.8873 59.4333 54.8873 59.6734 54.8873 59.8994C54.8873 60.2665 54.9014 60.5207 54.9296 60.6619C54.9579 60.7749 55.0709 60.8314 55.2686 60.8314C55.664 60.7467 55.9888 60.6196 56.243 60.4501C56.5254 60.2524 56.8361 59.9982 57.175 59.6875C57.5987 59.2921 57.9658 59.2356 58.2765 59.5181C58.6155 59.7723 58.8273 60.0688 58.912 60.4077C58.9685 60.5207 58.912 60.7749 58.7425 61.1703C58.5731 61.5657 58.3754 61.947 58.1494 62.3142C57.9235 62.6814 57.7399 62.865 57.5987 62.865C57.5139 62.865 57.3445 62.9779 57.0903 63.2039C56.8361 63.4298 56.6384 63.5852 56.4972 63.6699C56.2995 63.8676 56.1018 64.0512 55.9041 64.2207C55.7346 64.3901 55.5369 64.4748 55.3109 64.4748C55.198 64.4748 55.0567 64.5172 54.8873 64.6019C54.7461 64.6584 54.5766 64.6867 54.3789 64.6867C54.0965 64.7714 53.6587 64.729 53.0656 64.5596C52.5007 64.3901 52.1335 63.9947 51.9641 63.3733C51.8511 63.0627 51.6816 62.6672 51.4557 62.1871C51.258 61.707 51.2156 61.1138 51.3286 60.4077C51.4415 59.8994 51.5122 59.4333 51.5404 59.0097C51.5686 58.586 51.6251 58.2895 51.7099 58.12C51.7099 58.0353 51.7099 57.8376 51.7099 57.5269C51.7099 57.188 51.6675 57.0185 51.5828 57.0185C51.4698 57.0185 51.258 57.1597 50.9473 57.4422C50.6366 57.7246 50.2694 58.1059 49.8458 58.586C49.4221 59.0379 48.9843 59.5322 48.5324 60.0688C48.1088 60.6055 47.7275 61.1421 47.3886 61.6787C47.1344 61.9894 46.9084 62.3707 46.7107 62.8226C46.513 63.2745 46.3718 63.5287 46.2871 63.5852C46.0894 63.8111 45.7504 63.8394 45.2703 63.6699C44.8184 63.5004 44.4795 63.2321 44.2535 62.865C44.1688 62.6955 44.0699 62.5966 43.957 62.5684C43.844 62.5119 43.7451 62.4272 43.6604 62.3142C43.6039 62.173 43.6039 61.9047 43.6604 61.5093C43.7451 61.1138 43.9287 60.4784 44.2111 59.6028C44.5218 58.6425 44.7901 57.7811 45.0161 57.0185C45.2703 56.2277 45.3974 55.8323 45.3974 55.8323C45.3974 55.7193 45.1856 55.8323 44.7619 56.1712C44.3382 56.4819 43.844 56.8773 43.2791 57.3574C43.0249 57.6681 42.686 58.0635 42.2623 58.5437C41.8669 59.0238 41.4009 59.5887 40.8643 60.2383C40.3559 60.8879 39.7769 61.6505 39.1273 62.526C38.3082 63.684 37.6868 64.3901 37.2632 64.6443C36.8678 64.8985 36.5147 64.8279 36.204 64.4325ZM59.1367 76.2948C58.939 76.2101 58.6284 75.9983 58.2047 75.6594C57.8093 75.3204 57.4421 74.9533 57.1032 74.5579C56.7925 74.1907 56.6372 73.9224 56.6372 73.7529C56.6372 73.5834 56.7078 73.1315 56.849 72.3972C56.9902 71.6911 57.1738 70.8156 57.3998 69.7705C57.6539 68.7538 57.9223 67.7088 58.2047 66.6355C58.5154 65.5905 58.8261 64.6584 59.1367 63.8394C59.1932 63.6981 59.3768 63.2321 59.6875 62.4413C60.0264 61.6222 60.3512 60.6337 60.6619 59.4757C60.8879 58.7414 61.1844 57.9082 61.5516 56.9761C61.9188 56.0441 62.3 55.112 62.6955 54.18C63.0909 53.2197 63.4157 52.3724 63.6699 51.6381C63.9241 50.9037 64.2065 50.1694 64.5172 49.4351C64.8279 48.6725 64.9973 48.2347 65.0256 48.1217C65.082 47.9523 65.2374 47.811 65.4916 47.6981C65.774 47.5569 66.0565 47.4439 66.3389 47.3591C66.6213 47.2462 66.8049 47.1756 66.8896 47.1473C67.398 47.0061 67.8358 47.2179 68.203 47.7828C68.3442 48.037 68.3724 48.39 68.2877 48.8419C68.2312 49.2656 68.09 49.7316 67.8641 50.24L67.5675 51.0873L69.0927 50.7484C69.3469 50.7484 69.6999 50.7625 70.1518 50.7908C70.6037 50.819 71.0415 50.8472 71.4651 50.8755C71.917 50.9037 72.2277 50.9461 72.3972 51.0026C73.075 51.0308 73.541 51.1579 73.7952 51.3839C74.0777 51.6098 74.3177 51.9064 74.5155 52.2736C74.6567 52.4148 74.8261 52.6125 75.0238 52.8667C75.2215 53.0926 75.3345 53.3186 75.3628 53.5445C75.4757 54.0247 75.4334 54.5895 75.2357 55.2391C75.0662 55.8888 74.7979 56.5525 74.4307 57.2303C74.0918 57.8799 73.6823 58.4872 73.2021 59.0521C72.7502 59.5887 72.3124 59.9982 71.8888 60.2807C71.6064 60.3936 71.3522 60.5207 71.1262 60.6619C70.9003 60.7749 70.7873 60.8314 70.7873 60.8314C70.759 60.9726 70.4625 61.2127 69.8976 61.5516C69.361 61.8905 68.7255 62.2153 67.9912 62.526C67.2851 62.8085 66.6496 62.9921 66.0847 63.0768C65.887 63.105 65.6046 63.1333 65.2374 63.1615C64.8702 63.1898 64.5878 63.1474 64.3901 63.0344C64.0794 62.9779 63.8676 62.9497 63.7546 62.9497C63.6416 62.9497 63.5851 63.0062 63.5851 63.1191C63.5569 63.1756 63.3592 63.6275 62.992 64.4748C62.6248 65.3222 62.2436 66.4943 61.8481 67.9912C61.3115 69.6293 60.8737 70.9709 60.5348 72.0159C60.1959 73.0892 59.9276 73.9224 59.7299 74.5155C59.5604 75.1086 59.4333 75.5323 59.3486 75.7865C59.2638 76.0689 59.1932 76.2384 59.1367 76.2948ZM64.6019 59.391C64.6866 59.5604 64.9832 59.6169 65.4916 59.5604C66 59.4757 66.579 59.3062 67.2286 59.0521C67.8782 58.7979 68.4572 58.5013 68.9656 58.1624C69.5022 57.7952 69.8129 57.4139 69.8976 57.0185C70.519 56.3124 70.9567 55.804 71.2109 55.4933C71.4651 55.1544 71.451 54.8861 71.1686 54.6884C70.8579 54.2365 70.406 54.0247 69.8129 54.0529C69.248 54.0812 68.3442 54.4342 67.1015 55.1121C66.6213 55.2815 66.2965 55.4369 66.1271 55.5781C65.9576 55.691 65.8164 55.8746 65.7034 56.1288C65.6187 56.383 65.4492 56.7926 65.195 57.3574C64.9408 57.9788 64.7714 58.4448 64.6866 58.7555C64.6019 59.0662 64.5737 59.278 64.6019 59.391ZM80.7402 65.4069C80.5143 65.4634 80.2177 65.4916 79.8505 65.4916C79.4834 65.4634 79.1586 65.421 78.8761 65.3645C78.6219 65.2798 78.4948 65.1951 78.4948 65.1103C78.4948 64.9691 78.4242 64.8985 78.283 64.8985C78.283 64.8985 78.1277 64.7855 77.817 64.5596C77.5063 64.3054 77.2239 64.1218 76.9697 64.0088C76.7155 63.6134 76.546 63.1615 76.4613 62.6531C76.4048 62.1165 76.5743 61.1845 76.9697 59.857C76.9979 58.9532 77.2521 58.007 77.7323 57.0185C78.2124 56.0017 78.8196 55.0132 79.554 54.0529C80.2883 53.0926 81.0509 52.2453 81.8417 51.511C82.6325 50.7484 83.3386 50.1835 83.96 49.8163C84.3554 49.4209 84.8779 49.2091 85.5275 49.1809C86.2054 49.1526 86.7985 49.2797 87.3069 49.5622C87.5893 49.7034 87.9 49.9858 88.2389 50.4095C88.5779 50.8331 88.9027 51.285 89.2133 51.7652C89.524 52.2171 89.7641 52.6266 89.9335 52.9938C90.0183 53.3045 90.0889 53.5869 90.1454 53.8411C90.2301 54.067 90.2866 54.3495 90.3148 54.6884C90.3431 55.0273 90.3148 55.5357 90.2301 56.2136C90.0889 56.7219 89.9618 57.2445 89.8488 57.7811C89.7641 58.2895 89.7217 58.812 89.7217 59.3486C89.6652 59.8852 89.7217 60.2665 89.8912 60.4925C90.0889 60.7184 90.3713 60.7326 90.7385 60.5348C91.0774 60.3654 91.4305 60.3513 91.7976 60.4925C92.1648 60.6055 92.419 60.8314 92.5602 61.1703C92.7297 61.481 92.6873 61.8905 92.4331 62.3989C92.2637 62.7661 91.9953 63.1191 91.6282 63.4581C91.261 63.797 90.8515 64.0794 90.3996 64.3054C89.9477 64.5031 89.5099 64.6019 89.0862 64.6019C88.7756 64.6019 88.4649 64.489 88.1542 64.263C87.8435 64.0088 87.5611 63.6699 87.3069 63.2462C87.0527 62.8226 86.8409 62.3566 86.6714 61.8482L86.4172 60.8738L84.892 62.2718C84.5249 62.6672 84.1577 63.0344 83.7905 63.3733C83.4516 63.684 83.2398 63.91 83.1551 64.0512C83.0138 64.3054 82.7314 64.5313 82.3077 64.729C81.9123 64.9267 81.3898 65.1527 80.7402 65.4069ZM81.8841 61.3398C82.3642 61.0574 82.7738 60.7184 83.1127 60.323C83.4799 59.9276 83.8329 59.4898 84.1718 59.0097C84.5108 58.5013 84.8779 57.9647 85.2733 57.3998C85.7535 56.7502 86.0924 56.2277 86.2901 55.8323C86.5161 55.4369 86.6855 55.0132 86.7985 54.5613C86.6855 54.2506 86.5302 53.9258 86.3325 53.5869C86.1348 53.2197 85.9371 53.022 85.7394 52.9938C85.3439 52.9938 84.8638 53.2338 84.2989 53.714C83.7623 54.1941 83.1692 54.8861 82.5196 55.7899C82.4066 55.9311 82.2654 56.1571 82.0959 56.4677C81.9265 56.7784 81.757 57.075 81.5875 57.3574C81.4463 57.6116 81.3475 57.7811 81.291 57.8658C81.2062 57.9788 81.0791 58.2471 80.9097 58.6708C80.7685 59.0662 80.6414 59.4757 80.5284 59.8994C80.4154 60.2948 80.3589 60.5772 80.3589 60.7467C80.3589 60.9161 80.373 61.0997 80.4013 61.2974C80.4578 61.4951 80.599 61.6222 80.8249 61.6787C81.0509 61.7352 81.4039 61.6222 81.8841 61.3398ZM108.878 64.9832C108.256 64.9267 107.734 64.7996 107.31 64.6019C106.915 64.376 106.59 63.9382 106.336 63.2886C106.223 62.8367 106.166 62.3707 106.166 61.8905C106.194 61.3822 106.237 60.902 106.293 60.4501C106.35 59.97 106.378 59.5604 106.378 59.2215C106.378 59.165 106.378 59.0521 106.378 58.8826C106.378 58.7131 106.378 58.5578 106.378 58.4166C106.322 57.9929 106.209 57.7387 106.039 57.654C105.898 57.541 105.644 57.5551 105.277 57.6964C104.683 57.9788 104.034 58.3601 103.328 58.8402C102.65 59.2921 101.93 59.8288 101.167 60.4501C100.433 61.0432 99.6701 61.6787 98.8793 62.3566C98.2579 63.0344 97.7919 63.5852 97.4812 64.0088C97.1988 64.4325 96.9022 64.6443 96.5916 64.6443C96.3656 64.7573 96.1255 64.729 95.8714 64.5596C95.6172 64.3901 95.3488 64.1924 95.0664 63.9665C94.8687 63.7405 94.6286 63.4581 94.3462 63.1191C94.092 62.752 93.9367 62.5119 93.8802 62.3989C93.8802 61.947 93.9084 61.5375 93.9649 61.1703C94.0496 60.8032 94.1626 60.4219 94.3038 60.0265C94.4733 59.631 94.671 59.1791 94.8969 58.6708C95.0099 58.4731 95.1088 58.2753 95.1935 58.0776C95.3065 57.8517 95.4336 57.6116 95.5748 57.3574C95.6878 56.962 95.8431 56.5101 96.0408 56.0017C96.2668 55.4933 96.4786 55.0132 96.6763 54.5613C96.987 53.827 97.2271 53.1915 97.3965 52.6548C97.566 52.1182 97.7072 51.5392 97.8202 50.9179C97.7919 50.8614 97.806 50.7766 97.8625 50.6637C97.919 50.5507 98.0038 50.4801 98.1167 50.4518H98.1591H98.2015C98.3992 50.3106 98.7663 50.2965 99.303 50.4095C99.8678 50.4942 100.291 50.6495 100.574 50.8755C101.167 51.3839 101.449 52.0476 101.421 52.8667C101.393 53.6857 100.969 54.759 100.15 56.0865C99.9526 56.5384 99.7407 56.962 99.5148 57.3574C99.3171 57.7246 99.2182 57.9788 99.2182 58.12C99.2182 58.12 99.3312 58.0353 99.5572 57.8658C99.7831 57.6964 100.051 57.4986 100.362 57.2727C100.673 57.0185 100.941 56.8208 101.167 56.6796C101.308 56.5384 101.619 56.2842 102.099 55.917C102.579 55.5216 103.102 55.112 103.667 54.6884C104.231 54.2647 104.683 53.9399 105.022 53.714C105.333 53.488 105.728 53.2621 106.209 53.0361C106.689 52.7819 106.985 52.6548 107.098 52.6548C107.381 52.6548 107.72 52.7537 108.115 52.9514C108.539 53.1491 108.92 53.3892 109.259 53.6716C109.626 53.9258 109.838 54.1659 109.894 54.3918C109.894 54.5048 109.88 54.6602 109.852 54.8579C109.824 55.0273 109.81 55.1827 109.81 55.3239C109.781 55.7758 109.767 56.3265 109.767 56.9761C109.796 57.5975 109.81 58.233 109.81 58.8826C109.81 59.5039 109.753 60.0688 109.64 60.5772C109.64 60.5772 109.654 60.6055 109.683 60.6619C109.711 60.6902 109.739 60.7467 109.767 60.8314C109.739 60.8596 109.725 60.9161 109.725 61.0009C109.753 61.0574 109.767 61.0856 109.767 61.0856C109.824 61.2833 109.88 61.481 109.937 61.6787C110.021 61.8764 110.12 62.1024 110.233 62.3566C110.346 62.5825 110.473 62.8791 110.615 63.2462C110.586 63.6134 110.375 63.9806 109.979 64.3477C109.612 64.6867 109.245 64.8985 108.878 64.9832ZM115.105 64.6019C114.992 64.6019 114.752 64.5172 114.384 64.3477C114.017 64.1783 113.834 64.0936 113.834 64.0936C113.834 63.9806 113.791 63.8394 113.707 63.6699C113.65 63.5004 113.622 63.3592 113.622 63.2462C113.424 63.1333 113.226 62.9497 113.029 62.6955C112.831 62.4413 112.789 62.1589 112.902 61.8482C113.071 61.5375 113.297 61.0715 113.58 60.4501C113.89 59.8005 114.215 59.0803 114.554 58.2895C114.921 57.4704 115.26 56.6796 115.571 55.917C115.881 55.1544 116.15 54.5048 116.376 53.9682C116.602 53.4033 116.729 53.0644 116.757 52.9514C116.757 52.8384 116.771 52.6407 116.799 52.3583C116.856 52.0758 117.039 51.8358 117.35 51.6381C117.717 51.3839 118.099 51.3698 118.494 51.5957C118.889 51.8217 119.228 52.2171 119.511 52.7819C119.793 53.3186 119.934 53.9541 119.934 54.6884C119.934 54.8861 119.793 55.3945 119.511 56.2136C119.228 57.0044 118.847 57.9505 118.367 59.0521C117.915 60.1536 117.407 61.2692 116.842 62.3989C116.418 63.218 116.093 63.797 115.867 64.1359C115.67 64.4466 115.415 64.6019 115.105 64.6019ZM120.866 48.3759C120.527 48.3759 120.118 48.2206 119.638 47.9099C119.186 47.5992 118.776 47.2038 118.409 46.7237C118.042 46.2435 117.858 45.7351 117.858 45.1985C117.858 45.0573 117.986 44.8031 118.24 44.4359C118.494 44.0405 118.734 43.6592 118.96 43.292C119.214 42.9249 119.341 42.7131 119.341 42.6566C119.567 42.6566 119.835 42.6989 120.146 42.7837C120.457 42.8684 120.711 42.9672 120.909 43.0802C121.219 43.7863 121.629 44.3936 122.137 44.9019C122.646 45.3821 122.9 45.9328 122.9 46.5542C122.9 47.1756 122.745 47.6416 122.434 47.9523C122.123 48.2347 121.601 48.3759 120.866 48.3759ZM130.284 65.1527C129.436 65.6328 128.533 65.9153 127.572 66C126.64 66.0565 125.765 65.9294 124.946 65.6187C124.127 65.2798 123.463 64.7855 122.955 64.1359C122.672 63.7688 122.404 63.1898 122.15 62.3989C121.895 61.5799 121.853 60.4784 122.023 59.0944C122.192 57.7952 122.587 56.4819 123.209 55.1544C123.858 53.827 124.649 52.6548 125.581 51.6381C126.513 50.6213 127.53 49.9293 128.632 49.5622C129.027 49.4209 129.422 49.3221 129.818 49.2656C130.241 49.1809 130.792 49.1667 131.47 49.2232C132.12 49.308 132.699 49.4774 133.207 49.7316C133.715 49.9576 134.083 50.2118 134.309 50.4942C134.76 50.9461 135.057 51.3839 135.198 51.8075C135.339 52.2312 135.396 52.6407 135.368 53.0361C135.226 53.9399 134.817 54.9143 134.139 55.9594C133.489 57.0044 132.572 57.7811 131.385 58.2895C130.905 58.4872 130.34 58.6143 129.691 58.6708C129.041 58.7272 128.151 58.6425 127.022 58.4166C126.344 58.2753 125.892 58.346 125.666 58.6284C125.468 58.9108 125.384 59.4616 125.412 60.2807C125.468 60.789 125.581 61.2409 125.751 61.6364C125.948 62.0035 126.301 62.2577 126.81 62.3989C127.459 62.5119 127.925 62.526 128.208 62.4413C128.49 62.3283 128.843 62.173 129.267 61.9753C129.493 61.8341 129.705 61.6787 129.903 61.5093C130.128 61.3398 130.34 61.1703 130.538 61.0009C130.764 60.8314 130.948 60.7043 131.089 60.6196C131.23 60.5066 131.371 60.436 131.512 60.4077C131.654 60.3795 131.795 60.3654 131.936 60.3654C132.247 60.3936 132.543 60.5631 132.826 60.8738C133.108 61.1845 133.292 61.481 133.376 61.7634C133.376 61.9894 133.235 62.3142 132.953 62.7379C132.67 63.1333 132.289 63.5569 131.809 64.0088C131.357 64.4325 130.849 64.8138 130.284 65.1527ZM129.733 55.7052C129.931 55.6204 130.213 55.4227 130.58 55.1121C130.976 54.8014 131.329 54.4766 131.639 54.1376C131.95 53.7705 132.106 53.488 132.106 53.2903C132.106 52.9796 131.894 52.7113 131.47 52.4854C131.075 52.2594 130.552 52.2171 129.903 52.3583C129.677 52.4148 129.408 52.5701 129.098 52.8243C128.787 53.0785 128.476 53.3751 128.166 53.714C127.855 54.0247 127.587 54.3353 127.361 54.646C127.135 54.9285 126.979 55.1544 126.895 55.3239C127.008 55.4651 127.233 55.5781 127.572 55.6628C127.911 55.7475 128.278 55.7899 128.674 55.7899C129.098 55.7899 129.451 55.7617 129.733 55.7052ZM140.239 66.2542C139.335 66.2542 138.502 66.0565 137.739 65.6611C137.005 65.2374 136.412 64.729 135.96 64.1359C135.508 63.5146 135.282 62.9214 135.282 62.3566C135.282 62.1024 135.325 61.9188 135.409 61.8058C135.522 61.6928 135.678 61.6364 135.875 61.6364C136.017 61.6646 136.186 61.7352 136.384 61.8482C136.581 61.9612 136.779 62.0883 136.977 62.2295C137.429 62.5402 137.923 62.7379 138.46 62.8226C138.996 62.9073 139.476 62.8791 139.9 62.7379C140.324 62.5684 140.564 62.3142 140.62 61.9753C140.62 61.8623 140.564 61.6222 140.451 61.2551C140.338 60.8879 140.197 60.5348 140.027 60.1959C139.321 59.1509 138.883 58.1624 138.714 57.2303C138.544 56.27 138.431 55.3098 138.375 54.3495C138.375 53.9541 138.559 53.5163 138.926 53.0361C139.293 52.5277 139.745 52.0335 140.281 51.5533C140.875 51.045 141.524 50.5648 142.23 50.1129C142.965 49.661 143.685 49.2797 144.391 48.969C145.097 48.6584 145.69 48.4748 146.17 48.4183C146.679 48.4183 147.215 48.4465 147.78 48.503C148.373 48.5313 148.769 48.6301 148.966 48.7996C149.362 49.1103 149.729 49.6186 150.068 50.3247C150.407 51.0308 150.576 51.6239 150.576 52.1041C150.576 52.33 150.449 52.6125 150.195 52.9514C149.969 53.2621 149.757 53.6151 149.559 54.0105C149.447 54.2082 149.348 54.4201 149.263 54.646C149.178 54.872 149.079 55.0979 148.966 55.3239C148.797 55.7193 148.486 55.8888 148.034 55.8323C147.611 55.7475 147.215 55.5216 146.848 55.1544C146.481 54.759 146.297 54.3071 146.297 53.7987C146.297 53.3751 146.424 53.0079 146.679 52.6972C146.933 52.3865 147.06 52.1747 147.06 52.0617C147.06 52.0052 147.032 51.9629 146.975 51.9346C146.919 51.9064 146.82 51.8923 146.679 51.8923C146.481 51.8923 146.156 51.977 145.704 52.1465C145.281 52.2877 144.829 52.4995 144.349 52.7819C143.868 53.0644 143.431 53.4033 143.035 53.7987C142.753 54.1094 142.513 54.4483 142.315 54.8155C142.146 55.1544 142.061 55.5216 142.061 55.917C142.061 56.3124 142.131 56.7784 142.273 57.3151C142.442 57.8234 142.626 58.2471 142.823 58.586C142.88 58.6425 142.965 58.7979 143.078 59.0521C143.219 59.278 143.374 59.5604 143.544 59.8994C144.589 62.0459 144.758 63.6417 144.052 64.6867C143.374 65.7317 142.103 66.2542 140.239 66.2542ZM165.269 68.5419C163.885 68.5137 162.995 68.1183 162.599 67.3557C162.232 66.6214 162.133 65.6893 162.303 64.5596C162.472 64.0229 162.571 63.5428 162.599 63.1191C162.656 62.6672 162.783 62.3848 162.981 62.2718C162.981 62.2718 162.995 62.2295 163.023 62.1447C163.08 62.06 163.066 61.9753 162.981 61.8905C162.981 61.5234 163.108 61.015 163.362 60.3654C163.419 60.1959 163.489 59.9982 163.574 59.7723C163.687 59.5181 163.743 59.391 163.743 59.391C163.602 59.165 163.602 58.9814 163.743 58.8402C163.885 58.699 164.026 58.5719 164.167 58.4589C164.336 58.3177 164.351 58.1624 164.209 57.9929C164.153 57.8799 164.223 57.6257 164.421 57.2303C164.619 56.8067 164.845 56.3689 165.099 55.917C165.353 55.4651 165.523 55.112 165.607 54.8579C165.607 54.8014 165.678 54.6037 165.819 54.2647C165.96 53.9258 166.13 53.5304 166.328 53.0785C166.525 52.6266 166.709 52.2171 166.878 51.8499C167.076 51.4827 167.203 51.2427 167.26 51.1297C167.542 50.9885 167.429 50.8896 166.921 50.8331C166.412 50.7766 165.876 50.7625 165.311 50.7908C164.435 50.7625 163.729 50.7201 163.193 50.6637C162.684 50.6072 162.261 50.4801 161.922 50.2824C161.583 49.887 161.54 49.4209 161.795 48.8843C162.049 48.3194 162.458 48.0229 163.023 47.9946C163.39 47.9664 163.673 47.9523 163.87 47.9523C164.096 47.9523 164.379 47.9381 164.718 47.9099C165.085 47.8534 165.65 47.7828 166.412 47.6981L168.573 47.5286L168.7 46.8084C168.926 46.4412 169.081 46.2012 169.166 46.0882C169.251 45.9752 169.307 45.8622 169.336 45.7493C169.364 45.608 169.406 45.368 169.463 45.029C169.463 45.029 169.59 44.8031 169.844 44.3512C170.098 43.871 170.254 43.3768 170.31 42.8684C170.649 42.3035 170.946 41.7951 171.2 41.3432C171.454 40.8631 171.609 40.5665 171.666 40.4536C172.146 39.7475 172.612 39.3662 173.064 39.3097C173.544 39.2532 173.996 39.3662 174.419 39.6486C174.674 39.7898 174.914 39.9734 175.14 40.1994C175.366 40.3971 175.507 40.6654 175.563 41.0043C175.62 41.315 175.493 41.7245 175.182 42.2329C175.126 42.3459 175.041 42.5577 174.928 42.8684C174.815 43.1508 174.73 43.3909 174.674 43.5886C174.504 43.7863 174.292 44.1111 174.038 44.563C173.812 44.9867 173.657 45.4244 173.572 45.8763C173.346 46.3565 173.205 46.6531 173.149 46.766C173.092 46.879 173.007 46.9355 172.894 46.9355C172.951 47.2179 173.12 47.3591 173.403 47.3591C173.685 47.3309 174.151 47.3027 174.801 47.2744C175.337 47.2179 175.705 47.1614 175.902 47.105C176.128 47.0202 176.382 47.0485 176.665 47.1897C176.806 47.3874 176.877 47.6839 176.877 48.0794C176.905 48.4465 176.863 48.8137 176.75 49.1809C176.637 49.5198 176.481 49.7316 176.284 49.8163C176.142 49.8163 175.846 49.9011 175.394 50.0705C174.97 50.2118 174.434 50.2965 173.784 50.3247L171.539 50.5366L170.818 51.977C170.621 52.3442 170.451 52.6831 170.31 52.9938C170.169 53.2762 170.07 53.4457 170.013 53.5022C170.013 53.6716 169.915 53.9258 169.717 54.2647C169.547 54.6037 169.364 54.9708 169.166 55.3662C168.997 55.8464 168.799 56.2842 168.573 56.6796C168.375 57.075 168.276 57.2727 168.276 57.2727C168.163 57.2727 168.107 57.3574 168.107 57.5269C168.248 57.8658 168.206 58.12 167.98 58.2895C167.839 58.3742 167.712 58.5013 167.599 58.6708C167.514 58.812 167.472 58.8826 167.472 58.8826C167.584 58.9956 167.599 59.1368 167.514 59.3062C167.457 59.4757 167.373 59.6593 167.26 59.857C167.26 60.0829 167.189 60.4077 167.048 60.8314C166.935 61.2551 166.808 61.6505 166.667 62.0176C166.695 62.526 166.723 62.8508 166.751 62.9921C166.78 63.1333 166.85 63.1898 166.963 63.1615C167.104 63.1898 167.302 63.1898 167.556 63.1615C167.81 63.1333 167.994 63.1191 168.107 63.1191C168.531 62.9214 168.333 63.91 167.514 66.0847C167.062 66.7908 166.61 67.3698 166.158 67.8217C165.706 68.3019 165.41 68.5419 165.269 68.5419ZM177.006 64.3901C176.808 64.4184 176.582 64.3477 176.328 64.1783C176.102 63.9806 175.89 63.8111 175.693 63.6699C175.41 63.331 175.213 63.0344 175.1 62.7802C174.987 62.526 174.93 62.2436 174.93 61.9329C174.93 61.6222 174.958 61.2551 175.015 60.8314C175.156 60.3795 175.326 59.7723 175.523 59.0097C175.721 58.2471 175.961 57.428 176.244 56.5525C176.3 56.2136 176.399 55.8181 176.54 55.3662C176.71 54.8861 176.879 54.4342 177.048 54.0105C177.218 53.5586 177.345 53.2197 177.43 52.9938C177.627 52.2877 177.825 51.6098 178.023 50.9602C178.249 50.3106 178.517 49.5622 178.828 48.7148C179.139 47.8675 179.52 46.7943 179.972 45.4951C180.593 43.8004 181.059 42.5295 181.37 41.6822C181.68 40.8348 181.906 40.2276 182.048 39.8604C182.189 39.4933 182.288 39.1967 182.344 38.9708C182.344 38.7448 182.5 38.533 182.81 38.3353C183.149 38.1093 183.446 37.9963 183.7 37.9963C184.095 38.0246 184.477 38.2647 184.844 38.7166C185.211 39.1402 185.465 39.6627 185.606 40.2841C185.748 40.8772 185.649 41.4562 185.31 42.0211C184.858 43.0379 184.406 44.1817 183.954 45.4527C183.53 46.6954 183.107 47.9381 182.683 49.1809C182.259 50.4236 181.836 51.5675 181.412 52.6125C181.384 52.7537 181.285 52.9938 181.116 53.3327C180.974 53.6716 180.847 53.9541 180.734 54.18C180.621 54.406 180.508 54.6178 180.395 54.8155C180.311 55.0132 180.268 55.1121 180.268 55.1121C180.24 55.2815 180.184 55.5216 180.099 55.8323C180.014 56.1429 179.929 56.4113 179.845 56.6372C179.816 56.7784 179.774 56.962 179.718 57.188C179.661 57.4139 179.619 57.6399 179.59 57.8658C179.732 57.6964 179.929 57.4986 180.184 57.2727C180.438 57.0185 180.763 56.7078 181.158 56.3407C181.61 55.9452 182.005 55.6063 182.344 55.3239C182.683 55.0414 183.022 54.7872 183.361 54.5613C183.672 54.3353 183.954 54.1235 184.208 53.9258C184.491 53.7281 184.632 53.6293 184.632 53.6293C184.688 53.5445 184.745 53.4457 184.801 53.3327C184.886 53.2197 184.971 53.1491 185.056 53.1209C185.112 53.0644 185.211 52.9938 185.352 52.909C185.493 52.7961 185.635 52.6831 185.776 52.5701C186.03 52.4007 186.298 52.2594 186.581 52.1465C186.863 52.0335 187.16 51.9488 187.47 51.8923C187.781 51.8358 188.078 51.8075 188.36 51.8075C188.699 51.8075 189.052 51.9488 189.419 52.2312C189.786 52.4854 190.125 52.8526 190.436 53.3327C190.718 53.6999 190.888 54.1376 190.944 54.646C191.029 55.1262 191.043 55.7758 190.987 56.5948C190.987 56.8208 190.916 57.2445 190.775 57.8658C190.662 58.4872 190.577 58.9532 190.521 59.2639L190.139 60.7043H190.478C190.789 60.5913 191.086 60.5772 191.368 60.6619C191.679 60.7467 191.834 60.789 191.834 60.789C191.975 60.8738 192.102 60.9726 192.215 61.0856C192.357 61.1986 192.484 61.2833 192.597 61.3398C192.766 61.5657 192.738 61.8905 192.512 62.3142C192.286 62.7379 192.032 63.0344 191.749 63.2039C191.071 63.6558 190.464 63.9382 189.928 64.0512C189.419 64.1642 188.883 64.0653 188.318 63.7546C187.781 63.3875 187.414 62.9497 187.216 62.4413C187.047 61.9329 186.976 61.2409 187.004 60.3654C187.117 59.1227 187.188 58.233 187.216 57.6964C187.244 57.1315 187.103 56.849 186.793 56.849C186.454 56.849 185.988 57.0185 185.394 57.3574C184.83 57.6681 184.194 58.1059 183.488 58.6708C182.782 59.2074 182.076 59.8146 181.37 60.4925C180.692 61.1421 180.085 61.8058 179.548 62.4837C179.209 62.9073 178.842 63.331 178.447 63.7546C178.051 64.15 177.571 64.3619 177.006 64.3901ZM199.149 65.4069C198.923 65.4634 198.626 65.4916 198.259 65.4916C197.892 65.4634 197.567 65.421 197.285 65.3645C197.03 65.2798 196.903 65.1951 196.903 65.1103C196.903 64.9691 196.833 64.8985 196.692 64.8985C196.692 64.8985 196.536 64.7855 196.226 64.5596C195.915 64.3054 195.632 64.1218 195.378 64.0088C195.124 63.6134 194.955 63.1615 194.87 62.6531C194.813 62.1165 194.983 61.1845 195.378 59.857C195.406 58.9532 195.661 58.007 196.141 57.0185C196.621 56.0017 197.228 55.0132 197.963 54.0529C198.697 53.0926 199.459 52.2453 200.25 51.511C201.041 50.7484 201.747 50.1835 202.369 49.8163C202.764 49.4209 203.286 49.2091 203.936 49.1809C204.614 49.1526 205.207 49.2797 205.715 49.5622C205.998 49.7034 206.309 49.9858 206.647 50.4095C206.986 50.8331 207.311 51.285 207.622 51.7652C207.933 52.2171 208.173 52.6266 208.342 52.9938C208.427 53.3045 208.497 53.5869 208.554 53.8411C208.639 54.067 208.695 54.3495 208.723 54.6884C208.752 55.0273 208.723 55.5357 208.639 56.2136C208.497 56.7219 208.37 57.2445 208.257 57.7811C208.173 58.2895 208.13 58.812 208.13 59.3486C208.074 59.8852 208.13 60.2665 208.3 60.4925C208.497 60.7184 208.78 60.7326 209.147 60.5348C209.486 60.3654 209.839 60.3513 210.206 60.4925C210.573 60.6055 210.828 60.8314 210.969 61.1703C211.138 61.481 211.096 61.8905 210.842 62.3989C210.672 62.7661 210.404 63.1191 210.037 63.4581C209.67 63.797 209.26 64.0794 208.808 64.3054C208.356 64.5031 207.918 64.6019 207.495 64.6019C207.184 64.6019 206.873 64.489 206.563 64.263C206.252 64.0088 205.97 63.6699 205.715 63.2462C205.461 62.8226 205.249 62.3566 205.08 61.8482L204.826 60.8738L203.301 62.2718C202.933 62.6672 202.566 63.0344 202.199 63.3733C201.86 63.684 201.648 63.91 201.564 64.0512C201.422 64.3054 201.14 64.5313 200.716 64.729C200.321 64.9267 199.798 65.1527 199.149 65.4069ZM200.293 61.3398C200.773 61.0574 201.182 60.7184 201.521 60.323C201.888 59.9276 202.241 59.4898 202.58 59.0097C202.919 58.5013 203.286 57.9647 203.682 57.3998C204.162 56.7502 204.501 56.2277 204.699 55.8323C204.925 55.4369 205.094 55.0132 205.207 54.5613C205.094 54.2506 204.939 53.9258 204.741 53.5869C204.543 53.2197 204.346 53.022 204.148 52.9938C203.752 52.9938 203.272 53.2338 202.707 53.714C202.171 54.1941 201.578 54.8861 200.928 55.7899C200.815 55.9311 200.674 56.1571 200.504 56.4677C200.335 56.7784 200.166 57.075 199.996 57.3574C199.855 57.6116 199.756 57.7811 199.699 57.8658C199.615 57.9788 199.488 58.2471 199.318 58.6708C199.177 59.0662 199.05 59.4757 198.937 59.8994C198.824 60.2948 198.767 60.5772 198.767 60.7467C198.767 60.9161 198.782 61.0997 198.81 61.2974C198.866 61.4951 199.008 61.6222 199.233 61.6787C199.459 61.7352 199.812 61.6222 200.293 61.3398ZM218.262 66.2542C217.867 66.1412 217.471 65.9435 217.076 65.6611C216.681 65.3786 216.271 65.0538 215.847 64.6867C215.508 64.2348 215.268 63.8252 215.127 63.4581C214.986 63.0627 214.901 62.6108 214.873 62.1024C214.873 61.5657 214.873 60.8879 214.873 60.0688C214.873 59.7299 214.929 59.2498 215.042 58.6284C215.184 58.007 215.325 57.3574 215.466 56.6796C215.636 56.0017 215.791 55.4086 215.932 54.9002C216.073 54.3636 216.158 54.0105 216.186 53.8411C216.271 53.4739 216.13 53.2621 215.763 53.2056C215.396 53.1491 214.986 53.135 214.534 53.1632C214.11 53.1632 213.828 53.1209 213.687 53.0361C213.574 53.0079 213.517 52.8667 213.517 52.6125C213.517 52.33 213.517 52.1888 213.517 52.1888C213.517 52.0758 213.461 52.0052 213.348 51.977C213.235 51.9205 213.136 51.8217 213.051 51.6804C212.995 51.5675 213.065 51.3556 213.263 51.045C213.461 50.7343 213.715 50.5507 214.026 50.4942C214.28 50.4377 214.661 50.3953 215.17 50.3671C215.678 50.3106 216.186 50.2118 216.695 50.0705C217.231 49.9011 217.641 49.6469 217.923 49.308C218.178 48.6866 218.46 48.0229 218.771 47.3168C219.081 46.5824 219.378 45.947 219.66 45.4103C219.943 44.8455 220.14 44.4924 220.253 44.3512C220.734 44.097 221.228 43.9981 221.736 44.0546C222.245 44.0829 222.64 44.3229 222.922 44.7748C223.064 44.9726 223.177 45.1138 223.261 45.1985C223.374 45.2832 223.417 45.4103 223.388 45.5798C223.388 45.7493 223.276 46.0599 223.05 46.5118C222.852 46.9355 222.513 47.5992 222.033 48.503C221.892 48.7855 221.764 49.0396 221.651 49.2656C221.539 49.4633 221.482 49.5622 221.482 49.5622C221.595 49.5904 221.764 49.6045 221.99 49.6045C222.216 49.6045 222.499 49.5904 222.838 49.5622C223.148 49.5057 223.487 49.4633 223.854 49.4351C224.222 49.3786 224.546 49.3786 224.829 49.4351C225.479 49.4351 225.959 49.6186 226.269 49.9858C226.58 50.353 226.749 50.819 226.778 51.3839C226.834 51.6946 226.721 51.9629 226.439 52.1888C226.156 52.4148 225.634 52.5277 224.871 52.5277C224.617 52.5277 224.25 52.5419 223.77 52.5701C223.29 52.5984 222.795 52.6266 222.287 52.6548C221.779 52.6831 221.341 52.7255 220.974 52.7819C220.635 52.8102 220.465 52.8526 220.465 52.909C220.381 52.9655 220.239 53.1915 220.042 53.5869C219.872 53.9541 219.689 54.406 219.491 54.9426C219.321 55.4792 219.166 55.9876 219.025 56.4677C218.827 57.428 218.686 58.3601 218.601 59.2639C218.516 60.1677 218.502 60.9585 218.559 61.6364C218.644 62.286 218.813 62.752 219.067 63.0344C219.321 63.2886 219.703 63.2886 220.211 63.0344C220.748 62.752 221.242 62.4272 221.694 62.06C222.202 61.6364 222.64 61.5093 223.007 61.6787C223.374 61.8199 223.6 62.1306 223.685 62.6108C223.798 63.0627 223.671 63.5569 223.304 64.0936C222.965 64.6302 222.485 65.0821 221.863 65.4493C221.242 65.8164 220.606 66.0706 219.957 66.2118C219.307 66.3813 218.742 66.3954 218.262 66.2542Z" fill="#1E4D86"></path><g><path d="M185.978 86.491C186.527 87.5278 187.269 88.4548 187.72 89.5464C191.491 99.2122 198.897 105.484 207.714 110.192C210.749 111.814 214.469 112.73 217.965 112.939C227.93 113.668 237.594 112.132 246.688 108.097C249.311 106.939 251.747 105.246 253.956 103.169C253.027 103.243 252.021 103.297 251.073 103.448C248.323 103.843 245.553 104.315 242.767 104.539C241.587 104.627 240.277 104.276 239.064 103.87C238.601 103.746 238.09 102.881 238.134 102.408C238.178 101.934 238.863 101.228 239.269 101.256C246.346 101.049 253.06 98.8033 259.865 97.1481C262.249 96.5736 263.478 97.2266 263.857 99.5122C264.737 105.168 264.304 110.795 262.673 116.263C262.633 116.414 262.264 116.558 261.68 116.887C257.578 114.008 260.259 109.549 259.055 105.101C258.273 105.862 257.686 106.514 257.061 106.994C244.216 116.09 229.686 118.83 214.127 117.088C211.791 116.866 209.365 116.054 207.154 115.057C199.06 111.352 192.437 105.856 187.751 98.3718C186.253 95.9481 185.456 93.0651 184.618 90.333C184.244 89.2621 184.588 87.9791 184.64 86.8605C185.086 86.7374 185.532 86.6142 185.978 86.491Z" fill="#1E4D86"></path></g><defs><rect width="83" height="32" fill="white"></rect></defs></svg>