<svg xmlns="http://www.w3.org/2000/svg" width="42" height="42" viewBox="0 0 42 42" fill="none"><rect width="41.7813" height="41.7813" rx="20.8907" fill="#A31226"></rect><path d="M28.615 19.5228L29.5208 20.4286C29.9044 20.8121 29.9044 21.4323 29.5208 21.8118L21.593 29.7437C21.2095 30.1273 20.5893 30.1273 20.2098 29.7437L12.2779 21.8118C11.8943 21.4283 11.8943 20.8081 12.2779 20.4286L13.1837 19.5228C13.5713 19.1352 14.2037 19.1433 14.5832 19.5391L19.2673 24.4558V12.7292C19.2673 12.1866 19.7039 11.75 20.2465 11.75H21.5522C22.0949 11.75 22.5315 12.1866 22.5315 12.7292V24.4558L27.2155 19.5391C27.595 19.1393 28.2274 19.1311 28.615 19.5228Z" fill="white"></path></svg>